<svg height="512pt" viewBox="-87 0 512 512.00076" width="512pt" xmlns="http://www.w3.org/2000/svg"><path d="m241.296875 267.320312c16.730469-27.0625 17.160156-60.238281 15.132813-92.0625-1.753907-27.523437-5.136719-56.523437-17.890626-82.105468-11.390624-22.851563-29.878906-40.21875-50.722656-47.652344-19.632812-6.996094-43.59375-.410156-64.089844 17.621094-10.105468 8.890625-17.980468 19.914062-22.777343 31.886718-7.628907 19.042969-8.003907 39.722657-8.363281 59.722657-.128907 6.96875-.257813 14.175781-.699219 21.136719-.34375 5.382812-.890625 10.878906-1.421875 16.195312-.214844 2.128906-.429688 4.277344-.632813 6.4375-.316406.757812-.40625 1.601562-.21875 2.429688-.527343 5.898437-.9375 11.878906-.972656 17.855468-.097656 17.449219 3.324219 32.011719 10.175781 43.285156 8.992188 14.800782 23.894532 24.457032 37.042969 32.976563l31.019531 20.101563c2.585938 1.675781 6.132813 3.972656 10.375 4.136718.167969.003906.335938.007813.5.007813 4.875 0 8.878906-2.734375 11.828125-4.75 18.277344-12.480469 38.988281-26.628907 51.714844-47.222657zm-6.855469-4.238281c-1.996094 3.222657-4.234375 6.28125-6.640625 9.210938-.386719-.519531-.890625-.96875-1.519531-1.261719-4.304688-2.011719-7.558594-6.824219-8.707031-12.875-1.128907-5.964844-.304688-12.386719.492187-18.59375.015625-.128906.007813-.25.011719-.378906 11.996094-7.085938 22.742187-16.535156 30.75-27.460938-1.113281 18.375-4.941406 36.074219-14.386719 51.359375zm-105.390625-193.90625c13.609375-11.96875 28.707031-18.359375 42.484375-18.359375 4.71875 0 9.28125.75 13.574219 2.28125 18.898437 6.734375 35.746094 22.644532 46.214844 43.652344 4.050781 8.125 7.09375 16.671875 9.433593 25.445312-6.003906 2.679688-13.417968 2.054688-18.851562-1.695312-3.085938-2.128906-8.832031-6.09375-13.699219-2-3.378906 2.847656-2.941406 7.40625-2.777343 9.125.53125 5.503906 1.574218 10.953125 3.117187 16.261719-11.066406-.207031-22.460937-4.433594-31.9375-11.957031-9.953125-7.90625-17.878906-19.324219-22.917969-33.023438-.527344-1.429688-1.8125-2.441406-3.324218-2.613281-1.511719-.171875-2.992188.515625-3.828126 1.789062-6.042968 9.1875-7.757812 20.996094-4.886718 31.574219-16.464844-2.367188-29.875-13.140625-34.316406-28.121094-.03125-.101562-.082032-.191406-.121094-.289062.382812-1.085938.789062-2.167969 1.21875-3.242188 4.328125-10.800781 11.457031-20.769531 20.617187-28.828125zm-29.117187 107.203125c.453125-7.144531.585937-14.445312.710937-21.507812.261719-14.339844.523438-28.109375 3.191407-41.226563 8.496093 14.703125 24.917968 24.226563 43.695312 24.558594 1.425781.035156 2.707031-.675781 3.464844-1.851563.753906-1.175781.847656-2.65625.246094-3.917968-3.289063-6.882813-3.757813-14.992188-1.539063-22.269532 5.464844 11.363282 12.929687 20.960938 21.894531 28.078126 11.140625 8.847656 24.683594 13.714843 37.832032 13.714843 1.667968 0 3.332031-.082031 4.980468-.238281 1.238282-.117188 2.351563-.804688 3.019532-1.851562.667968-1.050782.8125-2.351563.390624-3.523438-2.253906-6.285156-3.722656-12.84375-4.363281-19.492188-.097656-1.054687-.070312-1.652343-.019531-1.980468 1.054688.308594 3 1.652344 3.902344 2.273437 7.285156 5.023438 17.09375 6.082031 25.347656 2.957031 3.277344 15.042969 4.734375 30.570313 5.695312 45.667969.433594 6.785157.75 13.628907.816407 20.445313-.316407.300781-.601563.644531-.816407 1.050781-14.363281 27.515625-47.765624 47.917969-77.71875 47.570313-30.054687-.394532-59.125-18.523438-72.835937-45.246094.210937-2.257813.4375-4.503906.65625-6.730469.539063-5.382813 1.097656-10.953125 1.449219-16.480469zm5.773437 81.503906c-6.0625-9.976562-9.09375-23.117187-9.003906-39.050781.007813-1.773437.0625-3.550781.132813-5.335937 7.78125 11.066406 18.09375 20.328125 29.839843 27.085937.027344.175781.042969.351563.09375.527344 3.121094 10.996094-.144531 23.492187-8.113281 31.652344-5.011719-4.371094-9.53125-9.253907-12.949219-14.878907zm79.328125 50.007813c-2.75 1.878906-5.199218 3.421875-7.46875 3.339844-2.03125-.078125-4.300781-1.550781-6.300781-2.847657l-31.019531-20.101562c-4.996094-3.234375-10.25-6.652344-15.28125-10.429688 8.09375-8.640624 12.066406-20.9375 10.761718-32.6875 10.960938 4.832032 22.820313 7.578126 34.828126 7.738282.316406.003906.625.003906.941406.003906 12.589844 0 25.699218-3.335938 37.941406-9.132812-.539062 5.101562-.796875 10.535156.214844 15.882812 1.605468 8.460938 6.425781 15.351562 12.917968 18.527344-11.164062 11.667968-24.941406 21.101562-37.535156 29.707031zm0 0"/><path d="m150.054688 407.773438-1.734376.417968c2.101563-29.332031-.132812-58.730468-6.671874-87.417968-.496094-2.171876-2.65625-3.535157-4.828126-3.035157-2.167968.496094-3.527343 2.65625-3.035156 4.824219 6.515625 28.585938 8.652344 57.898438 6.347656 87.121094-.011718.164062.003907.320312.011719.484375l-4.472656 1.078125c-2.164063.523437-3.492187 2.703125-2.96875 4.867187.445313 1.84375 2.09375 3.085938 3.914063 3.085938.3125 0 .632812-.039063.949218-.117188l14.382813-3.472656c2.164062-.523437 3.496093-2.699219 2.972656-4.867187-.523437-2.160157-2.703125-3.488282-4.867187-2.96875zm0 0"/><path d="m213.878906 407.089844c-2.375-.875-4.839844-1.488282-7.34375-1.859375-.640625-27.976563 2.296875-55.96875 8.75-83.203125.511719-2.164063-.828125-4.335938-2.996094-4.851563-2.167968-.515625-4.335937.828125-4.851562 2.996094-6.570312 27.742187-9.582031 56.25-8.96875 84.75-.574219.042969-1.152344.085937-1.722656.15625-2.210938.265625-3.785156 2.273437-3.519532 4.484375.265626 2.210938 2.273438 3.789062 4.484376 3.519531 4.496093-.542969 9.121093 0 13.371093 1.574219.460938.167969.933594.25 1.398438.25 1.640625 0 3.179687-1.007812 3.78125-2.632812.773437-2.089844-.292969-4.410157-2.382813-5.183594zm0 0"/><path d="m334.664062 389.25c-7.925781-36.976562-28.332031-66.5-56.003906-81.039062.886719-1.980469 1.589844-4.011719 2.082032-6.082032 1.707031-7.234375.875-14.441406.070312-21.40625-.375-3.269531-.734375-6.359375-.84375-9.445312-.40625-11.441406 2.59375-22.609375 5.769531-34.433594 3.542969-13.203125 7.210938-26.855469 5.679688-40.914062-1.175781-10.824219-5.332031-20.820313-9.351563-30.488282-3.34375-8.042968-6.503906-15.636718-8.101562-23.683594-2.390625-12.015624-1.167969-24.277343.125-37.261718 1.363281-13.667969 2.769531-27.804688-.441406-41.613282-4.078126-17.554687-15.898438-33.988281-32.417969-45.082031-14.316407-9.609375-32.46875-15.597656-52.492188-17.308593-29.332031-2.507813-56.21875 4.621093-75.710937 20.078124-16.234375 12.878907-28.613282 32.457032-36.785156 58.191407-11.253907 35.457031-12.28125 73.167969-13.273438 109.636719-.453125 16.730468-.925781 34.03125-2.382812 50.824218-.148438 1.710938-.308594 3.421875-.46875 5.136719-.980469 10.554687-1.992188 21.464844-.574219 32.328125 1.234375 9.453125 4.296875 17.773438 8.875 24.402344-19.773438 4.070312-37.933594 19.808594-48.109375 42.03125-9.632813 21.027344-11.753906 45.019531-13.628906 66.1875l-6.289063 71.03125c-.5625 6.378906-1.613281 18.246094 6.070313 25.339844 5.605468 5.175781 13.304687 5.625 20.710937 5.640624l280.675781.679688h.871094c5.484375 0 13.261719-.238281 18.777344-5.226562 5.195312-4.695313 6.417968-11.601563 7.21875-18.269532 3.867187-32.0625 7.050781-66.132812-.050782-99.253906zm-7.953124 98.285156c-.648438 5.371094-1.488282 10.425782-4.621094 13.257813-3.238282 2.925781-8.589844 3.171875-14.222656 3.144531l-47.425782-.117188c-1.785156-35.742187-.015625-71.78125 5.289063-107.164062.332031-2.203125-1.1875-4.257812-3.390625-4.585938-2.207032-.335937-4.253906 1.1875-4.582032 3.386719-5.363281 35.777344-7.167968 72.203125-5.390624 108.34375l-171.273438-.414062c2.65625-34.980469 2.59375-70.398438-.214844-105.351563-.179687-2.21875-2.125-3.871094-4.34375-3.695312-2.21875.179687-3.871094 2.121094-3.695312 4.34375 2.789062 34.726562 2.839844 69.929687.167968 104.683594l-45.816406-.109376c-6.0625-.015624-11.789062-.292968-15.265625-3.503906-4.402343-4.066406-4.117187-11.785156-3.503906-18.703125l6.289063-71.035156c1.90625-21.519531 3.875-43.773437 12.925781-63.539063 11.644531-25.4375 31.402343-36.347656 46.007812-38.082031.332031-.039062.640625-.125.9375-.238281 1.089844.984375 2.226563 1.90625 3.410157 2.75 5.339843 3.792969 11.375 5.945312 17.214843 8.027344 2.496094.890625 4.855469 1.730468 7.167969 2.695312 6.125 2.546875 13.835938 7.113282 15.789062 14.394532.578126 2.148437 2.785157 3.429687 4.9375 2.847656 2.152344-.574219 3.425782-2.785156 2.851563-4.9375-2.21875-8.269532-9.300781-15.097656-20.480469-19.75-2.507812-1.042969-5.078125-1.960938-7.558594-2.847656-5.566406-1.980469-10.824218-3.855469-15.25-7.003907-7.972656-5.664062-13.488281-16.125-15.128906-28.691406-1.300781-9.96875-.332031-20.425781.609375-30.539063.160157-1.730468.320313-3.457031.46875-5.1875 1.480469-17.03125 1.953125-34.453124 2.414063-51.296874.976562-35.910157 1.988281-73.042969 12.898437-107.417969 7.679688-24.179688 19.152344-42.453125 34.109375-54.3125 17.875-14.175781 42.738282-20.691407 70.011719-18.363281 18.667969 1.59375 35.503906 7.117187 48.6875 15.96875 14.84375 9.96875 25.4375 24.625 29.0625 40.210937 2.90625 12.511719 1.625 25.375.269531 38.992187-1.292968 12.996094-2.632812 26.4375-.011718 39.632813 1.757812 8.832031 5.21875 17.15625 8.566406 25.207031 3.976562 9.5625 7.730468 18.59375 8.78125 28.261719 1.367187 12.558594-1.945313 24.894531-5.453125 37.953125-3.191407 11.878906-6.488281 24.160156-6.039063 36.8125.121094 3.40625.515625 6.800781.894532 10.082031.757812 6.566407 1.472656 12.765625.089843 18.625-2.542969 10.761719-11.550781 17.636719-16.691406 20.777344-8.289063 5.066406-18 7.910156-27.390625 10.664063-2.140625.625-3.363281 2.863281-2.738281 5 .515625 1.757812 2.125 2.898437 3.867187 2.898437.375 0 .757813-.050781 1.136719-.160156 9.894531-2.902344 20.125-5.898438 29.328125-11.519531 5.847656-3.574219 10.644531-7.925782 14.191406-12.773438.058594.035156.105469.078125.167969.109375 25.621094 13.394531 44.578125 40.976563 52.015625 75.671875 6.839844 31.910156 3.714844 65.21875-.070312 96.597656zm0 0"/></svg>