<svg height="512" viewBox="0 0 60 61" width="512" xmlns="http://www.w3.org/2000/svg"><g id="019---Campervan"><path id="Shape" d="m18 50c-1.6568542 0-3 1.3431458-3 3s1.3431458 3 3 3 3-1.3431458 3-3-1.3431458-3-3-3zm0 4c-.5522847 0-1-.4477153-1-1s.4477153-1 1-1 1 .4477153 1 1-.4477153 1-1 1z"/><path id="Shape" d="m45 50c-1.6568542 0-3 1.3431458-3 3s1.3431458 3 3 3 3-1.3431458 3-3-1.3431458-3-3-3zm0 4c-.5522847 0-1-.4477153-1-1s.4477153-1 1-1 1 .4477153 1 1-.4477153 1-1 1z"/><path id="Shape" d="m29 35h10c2.7614237 0 5-2.2385763 5-5v-6c0-2.7614237-2.2385763-5-5-5h-10c-2.7614237 0-5 2.2385763-5 5v6c0 2.7614237 2.2385763 5 5 5zm-3-11c0-1.6568542 1.3431458-3 3-3h10c1.6568542 0 3 1.3431458 3 3v6c0 1.6568542-1.3431458 3-3 3h-10c-1.6568542 0-3-1.3431458-3-3z"/><path id="Shape" d="m60 14c.0148202-1.5057961-1.0889512-2.7892513-2.58-3 1.6685632-1.64226052 2.2295069-4.10505314 1.4367393-6.30792447-.7927677-2.20287134-2.7944357-3.74343319-5.1268508-3.94582464-2.3324152-.20239145-4.5695261.97035739-5.7298885 3.00374911-.5520749-.48690447-1.2638968-.75383767-2-.75h-6c-1.6568542 0-3 1.34314575-3 3 0 4.34-.06 4.31.18 5h-2.36c.24-.69.18-.61.18-5 0-1.65685425-1.3431458-3-3-3h-18c-1.6568542 0-3 1.34314575-3 3 0 4.34-.06 4.31.18 5-1.65685425-.0497056-3.04029437 1.2531458-3.09 2.91s1.25314575 3.0402944 2.91 3.09h2.36c-1.29 1-1 .87-9.56 12.27-1.01964884 1.345489-1.64308551 2.9491067-1.8 4.63v.1 12.18c-1.36496936.4952814-2.17928827 1.897032-1.93339863 3.3281097.24588963 1.4310777 1.48139376 2.480625 2.93339863 2.4918903h7.07c-.28684349 2.276742.4178068 4.5670406 1.9348542 6.2887841 1.5170473 1.7217434 3.7004064 2.7091353 5.9951458 2.7112159h10c.5522847 0 1-.4477153 1-1s-.4477153-1-1-1h-4.73c2.0049402-1.7392692 3.0039202-4.3681639 2.66-7h11.14c-.2868435 2.276742.4178068 4.5670406 1.9348542 6.2887841 1.5170473 1.7217434 3.7004064 2.7091353 5.9951458 2.7112159h10c.5522847 0 1-.4477153 1-1s-.4477153-1-1-1h-4.73c2.0049402-1.7392692 3.0039202-4.3681639 2.66-7h4.07c1.4520049-.0112653 2.687509-1.0608126 2.9333986-2.4918903.2458897-1.4310777-.5684292-2.8328283-1.9333986-3.3281097v-20.18c-.0056135-3.5868571-1.7596816-6.945711-4.7-9h3.7c.7956495 0 1.5587112-.3160705 2.1213203-.8786797.5626092-.5626091.8786797-1.3256708.8786797-2.1213203zm-7-11c2.209139 0 4 1.790861 4 4s-1.790861 4-4 4-4-1.790861-4-4 1.790861-4 4-4zm-14 7v-4c0-.55228475.4477153-1 1-1h6c.5522847 0 1 .44771525 1 1v4c0 .5522847-.4477153 1-1 1h-6c-.5522847 0-1-.4477153-1-1zm-26 0v-4c0-.55228475.4477153-1 1-1h18c.5522847 0 1 .44771525 1 1v4c0 .5522847-.4477153 1-1 1h-18c-.5522847 0-1-.4477153-1-1zm-.5 11h4.5c1.6568542 0 3 1.3431458 3 3v6c0 1.6568542-1.3431458 3-3 3h-12.77c.21644863-.9132408.61433591-1.7736296 1.17-2.53zm-9.5 29c-.55228475 0-1-.4477153-1-1s.44771525-1 1-1h8.76c-.4869068.6050371-.8812121 1.2790633-1.17 2zm15 9c-3.3137085 0-6-2.6862915-6-6s2.6862915-6 6-6 6 2.6862915 6 6-2.6862915 6-6 6zm7.41-9c-.2887879-.7209367-.6830932-1.3949629-1.17-2h14.52c-.4869068.6050371-.8812121 1.2790633-1.17 2zm19.59 9c-3.3137085 0-6-2.6862915-6-6s2.6862915-6 6-6 6 2.6862915 6 6-2.6862915 6-6 6zm12-9h-4.59c-.2887879-.7209367-.6830932-1.3949629-1.17-2h5.76c.5522847 0 1 .4477153 1 1s-.4477153 1-1 1zm-.9999901-17h-5.0000099c-1.6568542 0-3-1.3431458-3-3v-6c0-1.6568542 1.3431458-3 3-3h3.48c.993361 1.4780725 1.522646 3.2191414 1.52 5zm-3.3600099-14h-1.64c-2.7614237 0-5 2.2385763-5 5v6c0 2.7614237 2.2385763 5 5 5h5v5h-3c-3 0-3.92 4-2 4 .5522847 0 1-.4477153 1-1s.4477153-1 1-1h3v4h-7.14c-2.4030888-1.3237763-5.3169112-1.3237763-7.72 0h-17.14v-9c0-.5522847-.4477153-1-1-1s-1 .4477153-1 1v9h-.14c-2.4030888-1.3237763-5.3169112-1.3237763-7.72 0h-10.14v-5h3c3 0 3.92-4 2-4-.55228475 0-1 .4477153-1 1s-.44771525 1-1 1h-3v-4h13c2.7614237 0 5-2.2385763 5-5v-6c0-2.7614237-2.2385763-5-5-5h-2.88c1.303714-1.277387 3.0547978-1.9950443 4.88-2h28c2.0543491-.0034677 4.0467849.7030698 5.64 2zm-41.64-4c-.5522847 0-1-.4477153-1-1s.4477153-1 1-1h46c.5522847 0 1 .4477153 1 1s-.4477153 1-1 1z"/><circle id="Oval" cx="53" cy="7" r="1"/></g></svg>