<?xml version="1.0" encoding="iso-8859-1"?>
<!-- Generator: Adobe Illustrator 18.0.0, SVG Export Plug-In . SVG Version: 6.00 Build 0)  -->
<!DOCTYPE svg PUBLIC "-//W3C//DTD SVG 1.1//EN" "http://www.w3.org/Graphics/SVG/1.1/DTD/svg11.dtd">
<svg version="1.1" id="Capa_1" xmlns="http://www.w3.org/2000/svg" xmlns:xlink="http://www.w3.org/1999/xlink" x="0px" y="0px"
	 viewBox="0 0 280.888 280.888" style="enable-background:new 0 0 280.888 280.888;" xml:space="preserve">
<g>
	<path d="M222.547,105.163c-1.347,0.093-1.376,2.161,0,2.12c9.99-0.3,19.987-0.217,29.938,0.794
		c4.777,0.486,12.191,0.32,16.563,2.363c5.592-0.314,7.277,2.924,5.055,9.713c-1.243,1.326-2.53,2.607-3.863,3.841
		c-13.364,12.678-28.755,19.669-45.906,25.24c1.049-5.072,1.535-10.306,1.485-15.634c4.448-0.579,9.008-0.988,13.366-2.026
		c0.829-0.198,0.674-1.592-0.205-1.516c-4.406,0.38-8.803,1.383-13.151,2.229c-0.059-2.124-0.194-4.26-0.445-6.412
		c-0.161-1.389-0.39-2.749-0.626-4.106c4.496-0.368,9.004-0.428,13.516-0.328c0.951,0.021,0.909-1.356,0-1.45
		c-4.624-0.478-9.19-0.289-13.785,0.251c-0.517-2.633-1.191-5.192-1.971-7.694c4.395,0.098,8.732,0.532,13.125,0.971
		c0.953,0.095,1.172-1.499,0.227-1.68c-4.565-0.874-9.251-0.991-13.895-0.797c-0.545-1.619-1.076-3.247-1.729-4.802
		c6.921-14.43,12.933-29.261,17.933-44.468c1.904-5.792,8.885-18.661,2.75-24.234c-5.253-4.772-14.071-0.454-19.265,1.875
		c-6.298,2.824-12.381,6.127-18.245,9.79c-0.733,0.107-1.471,0.22-2.201,0.318c-0.756,0.101-0.859,1.079-0.305,1.33
		c-5.268,3.426-10.377,7.101-15.243,11.06c-0.144,0.023-0.29,0.039-0.434,0.062c-0.337,0.055-0.466,0.369-0.438,0.668
		c-1.174,0.967-2.347,1.934-3.496,2.927c-0.717,0.619,0.26,1.917,1.026,1.329c1.099-0.845,2.869-2.211,5.092-3.873
		c8.346-0.939,16.669-1.511,25.074-1.772c0.978-0.031,0.985-1.522,0-1.525c-7.616-0.024-15.239,0.57-22.79,1.606
		c4.364-3.2,9.982-7.118,15.865-10.703c4.844-0.334,9.744-0.65,14.466-1.549c1.003-0.191,0.767-1.8-0.24-1.771
		c-3.418,0.098-6.861,0.518-10.294,1.008c13.577-7.702,27.458-12.396,30.161-1.318c1.476,6.048-6.892,21.887-9.11,27.82
		c-3.551,9.504-7.622,18.78-11.889,27.978c-1.469-3.034-3.203-5.877-5.054-8.623c2.485-0.412,4.979-0.764,7.482-1.069
		c1.002-0.122,1.07-1.634,0-1.617c-2.921,0.045-5.778,0.434-8.614,1.031c-2.174-3.036-4.577-5.869-7.166-8.49
		c4.549-0.42,9.177-1.348,13.341-2.937c0.943-0.36,0.591-1.807-0.425-1.542c-4.808,1.255-9.494,2.332-14.347,3.127
		c-3.477-3.327-7.283-6.257-11.332-8.777c7.046-1.146,14.14-1.672,21.268-2.085c0.904-0.053,0.915-1.382,0-1.413
		c-7.837-0.263-15.483,0.781-23.131,2.429c-3.823-2.212-7.827-4.104-12.034-5.504c0.033-0.12,0.13-0.199,0.117-0.344
		c-1.428-15.615-5.862-31.443-11.61-46.003c-2.269-5.747-5.924-15.885-14.033-14.344c-6.117,1.163-10.807,9.604-13.993,16.483
		c-0.225-0.001-0.451,0-0.677-0.001c-1.055-0.005-1.065,1.538-0.077,1.657c-0.785,1.753-1.466,3.35-2.033,4.607
		c-0.704,1.561-1.357,3.137-1.97,4.723c-0.182-0.013-0.363-0.006-0.546-0.021c-0.775-0.061-0.743,1.1,0,1.19
		c0.04,0.005,0.08,0.007,0.12,0.012c-3.78,10.177-5.77,20.838-6.219,31.718C112.888,56.815,97.46,47.502,81.501,39.159
		c-6.166-3.223-18.105-11.377-25.52-6.539c-7.22,4.711-3.512,17.125-2.737,23.783c0.652,5.596,1.57,11.139,2.613,16.655
		l-0.038-0.003c-0.892-0.061-0.867,1.288,0,1.376c0.109,0.011,0.218,0.019,0.327,0.03c0.616,3.155,1.211,6.314,1.946,9.442
		c-0.094-0.01-0.188-0.021-0.282-0.031c-0.488-0.053-0.481,0.706,0,0.762c0.155,0.018,0.31,0.036,0.465,0.054
		c0.707,2.969,1.463,5.926,2.275,8.871c-0.689-0.055-0.97,0.98-0.241,1.151c0.195,0.045,0.392,0.083,0.587,0.129
		c1.126,4.003,2.339,7.984,3.656,11.939c0.386,1.16,2.182,0.688,1.847-0.509c-1.013-3.612-1.97-7.231-2.893-10.857
		c1.803,0.41,3.602,0.84,5.42,1.19c0.697,0.134,1-0.894,0.297-1.076c-2.003-0.517-4.022-0.948-6.038-1.393
		c-0.761-3.032-1.478-6.073-2.153-9.126c3.326,0.395,6.652,0.8,9.982,1.157c0.537,0.058,0.527-0.774,0-0.837
		c-3.383-0.402-6.773-0.757-10.161-1.121c-0.687-3.147-1.324-6.307-1.885-9.488v0c4.232,0.4,8.468,0.75,12.717,0.909
		c0.713,0.027,0.665-0.99,0-1.078c-4.318-0.571-8.658-0.947-13.002-1.271c-0.595-2.899-1.597-7.031-2.396-11.491
		c6.455,0.652,12.906,1.318,19.375,1.823c0.686,0.054,0.667-0.987,0-1.06c-6.509-0.706-13.032-1.249-19.555-1.807
		c-0.799-4.722-1.298-9.728-0.811-14.029c7.198,1.243,14.413,2.449,21.657,3.372c0.721,0.092,0.896-1.155,0.173-1.278
		c-7.2-1.227-14.456-2.169-21.705-3.076c0.555-3.593,1.917-6.574,4.487-8.356c5.178,0.929,10.356,1.868,15.554,2.669
		c0.939,0.145,1.364-1.27,0.4-1.452c-4.565-0.862-9.151-1.616-13.737-2.366c1.377-0.47,2.996-0.692,4.899-0.608
		c9.138,0.402,24,12.142,31.972,16.809c8.303,4.86,16.375,10.066,24.389,15.377c-24.412,2.742-44.738,19.033-54.71,40.5
		c-0.184-0.235-0.433-0.407-0.796-0.381c-22.804,1.616-45.551,8.424-66.78,16.606c-1.091,0.42-1.467,1.626-0.67,2.536
		c16.509,18.849,38.162,34.73,62.765,40.888c0.751,0.188,1.325-0.98,0.552-1.309c-6.914-2.938-13.764-5.871-20.403-9.272
		c5.259,0.553,10.501,1.211,15.763,1.785c0.733,0.08,0.909-1.172,0.175-1.296c-5.979-1.013-12.095-1.406-18.166-1.603
		c-2.481-1.327-4.929-2.732-7.329-4.251c-2.681-1.697-5.771-3.599-8.894-5.66c6.876,1.638,14.072,2.411,21.015,2.929
		c1.118,0.083,1.092-1.621,0-1.729c-8.454-0.839-16.667-2.564-25.007-3.945c-4.818-3.453-9.282-7.334-12.108-11.606
		c9.406,1.726,18.861,3.193,28.311,4.654c0.93,0.144,1.345-1.266,0.395-1.434c-10.342-1.833-20.687-3.699-31.087-5.176
		c-0.008-0.001-0.012,0.006-0.02,0.005c-1.441-1.23-1.415-2.676,0.095-4.344c2.894-1.081,5.807-2.107,8.734-3.093
		c8.651,0.264,17.263,0.97,25.849,2.154c0.919,0.127,1.329-1.272,0.39-1.416c-7.295-1.123-14.601-1.798-21.946-2.071
		c3.421-1.089,6.841-2.185,10.301-3.139c2.104-0.58,4.221-1.07,6.336-1.577c8.791,0.597,17.519,1.635,26.27,2.731
		c0.599,0.075,0.739-0.948,0.143-1.059c-7.42-1.39-14.919-2.17-22.444-2.625c4.581-1.018,9.181-1.918,13.789-2.792
		c3.466,0.481,6.91,1.12,10.3,1.983c0.919,0.234,1.292-1.135,0.391-1.416c-1.968-0.615-3.945-1.09-5.937-1.472
		c3.034-0.57,6.068-1.133,9.105-1.734c-4.672,10.868-6.713,22.964-5.307,35.259c0.87,7.617,2.829,14.788,5.66,21.438
		c-0.342-0.031-0.705,0.061-1.033,0.339c-18.531,15.705-33.436,34.625-45.175,55.844c-0.536,0.969,0.12,2.461,1.355,2.361
		c24.911-2.003,48.584-8.843,70.504-20.624c-1.599,15.12-2.085,30.354-1.919,45.571c-0.314,0.22-0.306,0.694,0.012,0.941
		c0.091,7.18,0.312,14.357,0.651,21.515c0.038,0.805,0.697,1.655,1.585,1.585c10.262-0.801,16.646-6.875,22.816-14.783
		c10.444-13.386,19.984-27.84,29.188-42.162c7.891,11.568,16.491,22.67,25.468,33.411c3.729,4.462,11.201,17.633,19.023,15.583
		c7.888-2.068,6.948-17.217,7.316-22.608c1.106-16.182,0.113-32.33-2.389-48.334c1.079-0.88,2.101-1.823,3.135-2.752
		c9.361,0.259,18.652-0.432,27.848-2.266c0.727-0.145,0.404-1.197-0.301-1.094c-8.714,1.279-17.406,2.004-26.186,2.165
		c3.328-3.118,6.368-6.516,9.151-10.105c5.96-0.134,11.92-0.234,17.87-0.612c0.875-0.056,0.894-1.381,0-1.376
		c-5.597,0.03-11.187,0.308-16.777,0.571c2.587-3.488,4.862-7.191,6.867-11.034c3.517-0.167,7.074-0.198,10.57-0.639
		c0.965-0.122,1.035-1.576,0-1.562c-3.27,0.046-6.542,0.448-9.8,0.766c2.085-4.204,3.809-8.59,5.095-13.134
		c15.39,13.578,28.483,29.166,37.342,47.892c9.817,20.751-14.931,14.215-27.044,10.229c6.376,0.099,12.735-0.332,19.015-1.455
		c0.613-0.11,0.479-1.153-0.148-1.096c-6.831,0.623-13.635,1.083-20.493,1.22c-0.388,0.008-0.576,0.285-0.609,0.578
		c-0.034-0.012-0.073-0.025-0.107-0.036c-5.765-1.985-11.218-4.443-16.487-7.253c7.951,0.334,15.89,0.284,23.818-0.488
		c0.867-0.085,0.892-1.437,0-1.376c-8.375,0.576-16.729,0.937-25.124,0.722c-0.181-0.005-0.312,0.064-0.4,0.168
		c-4.712-2.599-9.304-5.434-13.826-8.5c-1.54-1.044-2.872,1.386-1.436,2.456c13.597,10.135,29.288,17.306,45.86,20.967
		c5.717,1.263,20.185,6.031,23.87-1.43c4.516-9.142-10.749-28.716-15.411-35.321c-7.872-11.154-17.401-20.805-28.341-28.876
		c0.028-0.106,0.067-0.209,0.094-0.315c12.217-2.305,24.104-7.902,34.389-14.76c6.394-4.263,20.562-13.016,22.682-20.815
		C285.002,100.901,230.516,104.613,222.547,105.163z M26.931,220.441c-0.116-0.916,1.396-3.427,3.104-5.956l0.003,0.001
		c4.625,0.301,9.253,0.559,13.883,0.763c0.922,0.041,0.918-1.385,0-1.432c-4.353-0.222-8.709-0.39-13.066-0.526
		c1.59-2.284,3.161-4.387,3.622-5.077c0.552-0.827,1.155-1.622,1.721-2.44c6.913,1.073,13.967,1.648,20.944,2.04
		c0.606,0.034,0.763-0.991,0.146-1.077c-6.722-0.946-13.536-1.732-20.324-2.048c2.545-3.624,5.199-7.175,7.982-10.613
		c6.479,0.96,12.95,1.958,19.471,2.596c0.744,0.073,0.922-1.188,0.178-1.315c-6.192-1.051-12.426-1.769-18.661-2.509
		c2.263-2.737,4.63-5.368,7.04-7.957c0.071,0.033,0.115,0.092,0.206,0.102c4.821,0.495,9.563,0.906,14.315,1.94
		c0.895,0.195,1.276-1.141,0.381-1.38c-4.438-1.189-9.184-1.982-13.812-1.813c2.192-2.319,4.441-4.581,6.72-6.815
		c3.685,0.031,7.228,0.737,10.708,1.95c0.888,0.31,1.207-1.036,0.381-1.38c-3.094-1.289-6.301-1.889-9.606-2.007
		c2.219-2.143,4.462-4.264,6.752-6.344c0.045-0.041,0.058-0.087,0.095-0.129c6.139,13.254,15.857,24.253,27.792,32.138
		c-0.177,0.086-0.394,0.187-0.658,0.306c-0.087-1.278-1.997-1.197-2.15,0.119c-0.033,0.286-0.055,0.574-0.088,0.86
		C80.028,208.401,27.978,228.675,26.931,220.441z M98.062,202.487c0.189-0.108,0.259-0.265,0.321-0.42
		c2.98,1.878,6.105,3.535,9.319,5.023c-3.891,0.04-7.782,0.081-11.673,0.121c0.058-1.242,0.114-2.483,0.172-3.725
		C96.817,203.142,97.448,202.839,98.062,202.487z M128.484,238.662c-5.557,7.594-14.918,26.473-24.666,29.682
		c-6.413,2.111-8.76-2.427-9.468-8.585c3.218,0.543,6.466,0.703,9.729,0.388c0.829-0.08,0.865-1.332,0-1.32
		c-3.315,0.047-6.595-0.136-9.878-0.524c-0.157-2.169-0.137-4.478-0.048-6.739c5.591,0.309,11.182,0.282,16.735-0.55
		c0.774-0.116,0.595-1.421-0.185-1.37c-5.509,0.361-10.983,0.698-16.496,0.615c0.181-3.523,0.492-6.765,0.599-9.083
		c7.053,0.189,14.116,0.472,21.169,0.259c0.9-0.027,0.896-1.352,0-1.395c-7.031-0.338-14.081-0.183-21.12-0.12
		c0.021-2.955,0.08-5.907,0.162-8.858c0.01,0.237,0.162,0.475,0.468,0.491c4.256,0.22,8.502,0.125,12.696-0.661
		c0.56-0.105,0.44-1.065-0.136-1.004c-4.189,0.439-8.344,0.796-12.561,0.68c-0.307-0.008-0.457,0.216-0.467,0.452
		c0.09-3.238,0.235-6.474,0.372-9.709c7.974-0.051,15.929-0.235,23.896-0.612c1.058-0.05,1.071-1.662,0-1.655
		c-7.955,0.057-15.889,0.307-23.835,0.689c0.162-3.699,0.339-7.398,0.512-11.098c4.028,0.042,8.055,0.084,12.083,0.125
		c0.69,0.007,0.889-0.667,0.694-1.163c11.008,4.912,23.219,7.474,35.842,7.111c-0.045,0.256-0.01,0.539,0.19,0.836
		c0.178,0.265,0.368,0.521,0.547,0.786C139.57,223.671,133.992,231.133,128.484,238.662z M195.889,226.015
		c-0.042,4.25-0.235,8.499-0.499,12.741c-0.519,8.316,0.401,11.557-6.58,16.869c-7.611,5.791-6.927,2.6-11.903-3.2
		c-0.232-0.27-0.453-0.549-0.685-0.819c4.515,0.968,9.208,1.497,13.792,1.911c0.673,0.061,0.83-1.062,0.161-1.187
		c-4.817-0.901-9.803-1.755-14.701-1.996c-0.101-0.005-0.166,0.05-0.24,0.089c-2.472-2.906-4.93-5.825-7.341-8.782
		c4.487,0.432,9.032,0.554,13.528,0.675c0.759,0.02,0.747-1.123,0-1.171c-4.773-0.311-9.606-0.657-14.397-0.584
		c-2.337-2.89-4.587-5.843-6.85-8.787c6.843,0.735,13.725,1.086,20.597,0.573c0.589-0.044,0.606-0.93,0-0.93
		c-7.202,0.009-14.342-0.115-21.501-0.803c-3.215-4.203-6.387-8.439-9.556-12.679c8.562,0.861,17.165,1.16,25.763,0.694
		c0.949-0.051,0.964-1.506,0-1.487c-8.962,0.171-17.872,0-26.809-0.594c-0.353-0.473-0.712-0.94-1.065-1.413
		c0.132-0.205,0.266-0.411,0.398-0.616c0.921-0.038,1.839-0.056,2.767-0.152c6.077-0.629,12.008-1.954,17.705-3.878
		c4.538,0.117,9.072,0.321,13.61,0.556c0.586,0.03,0.554-0.825,0-0.893c-3.579-0.438-7.168-0.646-10.763-0.734
		c8.301-3.144,16.076-7.528,22.991-12.972C195.33,206.276,195.988,216.125,195.889,226.015z M220.515,150.603
		c-0.12-0.083-0.229-0.181-0.349-0.263c-0.569-0.391-1.278,0.513-0.744,0.964c0.26,0.219,0.506,0.45,0.764,0.67
		c-8.125,31.564-37.194,55.612-70.1,58.96c-39.419,4.01-76.261-21.23-83.655-60.797c-7.501-40.139,21.323-73.558,59.36-80.754
		c0.274,0.183,0.552,0.358,0.826,0.54c0.794,0.53,1.546,0.183,1.939-0.434c0.385-0.016,0.759-0.261,0.799-0.776
		c0-0.003,0.001-0.006,0.001-0.01c0.008-0.001,0.016-0.003,0.024-0.004c0.662-0.095,0.597-0.976,0.105-1.251
		c0.559-6.59,1.588-13.041,3.213-19.384c5.558,0.33,11.021,0.195,16.546-0.617c0.823-0.121,0.636-1.532-0.198-1.461
		c-5.309,0.451-10.636,0.644-15.962,0.466c0.618-2.253,1.316-4.491,2.11-6.715c0.39-1.093,0.909-2.541,1.523-4.183
		c4.547,0.389,9.093,0.397,13.644-0.143c0.787-0.093,0.829-1.312,0-1.264c-4.39,0.253-8.759,0.261-13.136,0.069
		c1.085-2.84,2.433-6.139,3.952-9.338c4.161,0.106,8.326,0.229,12.484,0.091c1.045-0.035,1.036-1.557,0-1.618
		c-3.864-0.226-7.739-0.225-11.612-0.224c1.109-2.205,2.298-4.294,3.535-6.104c4,0.5,8.013,1.063,12.036,1.159
		c0.635,0.015,0.804-1.015,0.153-1.132c-3.729-0.676-7.528-0.95-11.313-1.244c1.262-1.663,2.566-3.003,3.892-3.78
		c14.774-8.652,23.742,44.492,25.834,54.558c-13.926-4.039-29.39-3.572-44.496,2.801c-1.586,0.669-0.92,3.297,0.727,2.636
		c29.527-11.863,59.916-1.157,76.767,21.481c-0.417,0.527-0.01,1.496,0.839,1.312c0.035-0.008,0.07-0.011,0.105-0.019
		c7.38,10.431,11.95,23.25,12.352,37.499C222.659,138.604,221.907,144.714,220.515,150.603z"/>
	<path d="M179.358,138.149c-1.674,16.525-10.225,30.763-26.097,37.146c-17.848,7.178-44.361,1.683-49.83-19.551
		c-0.243-0.942-1.593-0.531-1.434,0.395c3.47,20.246,26.925,28.24,45.225,24.475c20.429-4.204,33.967-22.087,35.018-42.464
		C182.336,136.271,179.541,136.337,179.358,138.149z"/>
	<path d="M126.117,123.437c-2.968-2.718-7.414-3.919-11.13-2.022c-6.79,3.466-6.796,14.278-0.3,17.967
		c1,0.568,1.822-0.891,0.891-1.525c-4.391-2.995-4.402-10.825,0.215-13.704c2.706-1.687,6.078-0.704,8.314,1.293
		c2.643,2.361,2.845,4.971,2.844,8.284c0,1.083,1.437,1.425,1.992,0.54C131.144,130.766,128.862,125.95,126.117,123.437z"/>
	<path d="M151.271,109.606c-8.673,1.635-12.078,13.639-3.935,18.414c1.041,0.611,1.928-0.948,0.938-1.605
		c-7.305-4.857-1.664-14.823,6.026-14.269c3.669,0.264,6.81,2.375,8.686,5.488c2.019,3.347,1.847,6.729,2.224,10.44
		c0.13,1.273,1.889,1.64,2.301,0.311C170.514,118.698,161.306,107.713,151.271,109.606z"/>
	<path d="M149.693,58.409c-6.087-0.259-12.445-0.588-18.51,0.084c-0.883,0.098-0.885,1.278,0,1.376
		c6.068,0.672,12.42,0.343,18.51,0.084C150.686,59.91,150.687,58.451,149.693,58.409z"/>
	<path d="M241.575,139.003c-5.15,0.568-10.264,1.396-15.386,2.174c-0.84,0.128-0.651,1.608,0.203,1.497
		c5.137-0.667,10.281-1.279,15.388-2.156C242.628,140.373,242.442,138.908,241.575,139.003z"/>
</g>
<g>
</g>
<g>
</g>
<g>
</g>
<g>
</g>
<g>
</g>
<g>
</g>
<g>
</g>
<g>
</g>
<g>
</g>
<g>
</g>
<g>
</g>
<g>
</g>
<g>
</g>
<g>
</g>
<g>
</g>
</svg>
